<svg width="46" height="27" viewBox="0 0 46 27" fill="none" xmlns="http://www.w3.org/2000/svg">
<path d="M0.8 26V0.239998H14.2C16.3067 0.239998 18.0267 0.626665 19.36 1.4C20.72 2.17333 21.7333 3.25333 22.4 4.64C23.0667 6 23.4 7.58667 23.4 9.4C23.4 11.1333 22.96 12.6667 22.08 14C21.2267 15.3067 20.08 16.3067 18.64 17C18.9333 17.24 19.1867 17.5333 19.4 17.88C19.6133 18.2 19.8533 18.6533 20.12 19.24L23.08 26H15.24L12.52 19.8C12.3067 19.32 12.04 18.9867 11.72 18.8C11.4267 18.5867 11 18.48 10.44 18.48H8.32V26H0.8ZM8.32 12.72H12.28C13.3733 12.72 14.2133 12.44 14.8 11.88C15.4133 11.2933 15.72 10.4667 15.72 9.4C15.72 7.13333 14.6533 6 12.52 6H8.32V12.72ZM37.0447 26.4C34.8314 26.4 32.8714 26.04 31.1647 25.32C29.4847 24.5733 28.1647 23.4667 27.2047 22C26.2714 20.5333 25.8047 18.72 25.8047 16.56C25.8047 13.5467 26.658 11.1467 28.3647 9.36C30.0714 7.54667 32.618 6.64 36.0047 6.64C39.098 6.64 41.5114 7.42667 43.2447 9C45.0047 10.5733 45.8847 12.72 45.8847 15.44V18.76H32.7247C33.0714 19.7733 33.7514 20.4933 34.7647 20.92C35.778 21.3467 37.1514 21.56 38.8847 21.56C39.978 21.56 41.0714 21.4667 42.1647 21.28C43.2847 21.0667 44.178 20.8267 44.8447 20.56V25.08C42.978 25.96 40.378 26.4 37.0447 26.4ZM32.7247 14.68H39.4047V14C39.4047 13.2533 39.1647 12.64 38.6847 12.16C38.2314 11.68 37.418 11.44 36.2447 11.44C34.938 11.44 34.018 11.72 33.4847 12.28C32.978 12.8133 32.7247 13.6133 32.7247 14.68Z" fill="white"/>
</svg>
